<?xml version="1.0" standalone="no"?>
<!DOCTYPE svg PUBLIC "-//W3C//DTD SVG 20010904//EN"
 "http://www.w3.org/TR/2001/REC-SVG-20010904/DTD/svg10.dtd">
<svg version="1.0" xmlns="http://www.w3.org/2000/svg"
 width="300.000000pt" height="200.000000pt" viewBox="0 0 300.000000 200.000000"
 preserveAspectRatio="xMidYMid meet">
<metadata>
Created by potrace 1.10, written by Peter Selinger 2001-2011
</metadata>
<g transform="translate(0.000000,200.000000) scale(0.100000,-0.100000)"
fill="#000000" stroke="none">
<path d="M1718 1593 c-21 -5 -33 -43 -24 -77 9 -38 76 -45 76 -8 0 12 -3 13
-12 4 -28 -28 -57 4 -43 48 7 24 35 27 35 4 0 -8 5 -12 10 -9 25 16 -8 45 -42
38z"/>
<path d="M2420 1592 c-21 -7 -30 -23 -30 -52 0 -32 10 -46 36 -54 22 -7 64 17
51 30 -4 4 -13 2 -19 -4 -28 -28 -57 5 -43 48 7 24 35 27 35 4 0 -8 5 -12 10
-9 25 15 -10 47 -40 37z"/>
<path d="M1122 1581 c-20 -12 -10 -46 14 -49 25 -4 40 24 23 44 -13 16 -19 17
-37 5z"/>
<path d="M1343 1574 c-8 -22 10 -49 32 -49 10 0 22 7 28 16 15 24 1 49 -28 49
-15 0 -28 -7 -32 -16z"/>
<path d="M1594 1565 c-9 -37 3 -72 28 -78 24 -7 61 9 53 23 -4 6 -14 5 -26 -3
-16 -10 -21 -9 -29 3 -11 18 -4 30 19 30 10 0 23 6 30 13 15 19 -5 37 -41 37
-21 0 -29 -6 -34 -25z"/>
<path d="M1788 1565 c-17 -39 3 -75 42 -75 39 0 59 36 42 75 -9 19 -19 25 -42
25 -23 0 -33 -6 -42 -25z m57 -26 c0 -24 -5 -34 -15 -34 -16 0 -25 37 -16 62
10 26 31 8 31 -28z"/>
<path d="M1900 1588 c-1 -2 -2 -25 -3 -53 -2 -45 0 -50 19 -50 19 0 21 4 17
32 -3 19 0 39 7 48 23 28 33 16 28 -32 -4 -44 -3 -48 18 -48 23 0 24 5 8 83
-5 25 -41 30 -63 10 -11 -10 -13 -10 -7 0 4 7 1 12 -8 12 -9 0 -16 -1 -16 -2z"/>
<path d="M2024 1565 c-3 -14 -3 -36 0 -50 5 -20 13 -25 36 -25 23 0 33 6 42
25 17 38 -3 75 -42 75 -23 0 -31 -5 -36 -25z m56 -25 c0 -43 -23 -57 -35 -20
-9 27 3 60 21 60 10 0 14 -12 14 -40z"/>
<path d="M2140 1588 c-1 -2 -2 -26 -3 -54 -2 -42 1 -50 13 -47 11 3 15 14 12
37 -2 21 2 37 12 45 24 20 38 3 34 -40 -3 -31 0 -39 13 -39 12 0 14 7 11 30
-2 17 1 37 8 45 23 28 33 16 28 -33 -4 -45 -3 -48 17 -45 19 4 20 9 15 51 l-5
47 -55 1 c-30 1 -61 -3 -67 -8 -9 -7 -13 -7 -13 1 0 9 -19 17 -20 9z"/>
<path d="M2329 1586 c-2 -3 -3 -25 -1 -49 3 -35 8 -46 24 -50 14 -4 18 -2 14
10 -3 8 -6 32 -6 54 0 26 -4 39 -13 39 -8 0 -16 -2 -18 -4z"/>
<path d="M681 1566 c-12 -14 -5 -26 16 -26 15 0 18 26 4 34 -5 3 -14 0 -20 -8z"/>
<path d="M887 1566 c-7 -17 18 -40 33 -31 5 3 10 15 10 26 0 23 -35 27 -43 5z"/>
<path d="M1350 1445 c-26 -31 13 -82 44 -56 19 16 21 42 4 59 -16 16 -33 15
-48 -3z"/>
<path d="M890 1434 c-11 -12 -10 -18 3 -32 16 -15 18 -15 34 0 13 14 14 20 3
32 -7 9 -16 16 -20 16 -4 0 -13 -7 -20 -16z"/>
<path d="M1114 1435 c-8 -21 2 -45 19 -45 21 0 38 25 31 44 -8 20 -43 21 -50
1z"/>
<path d="M675 1430 c-8 -14 3 -30 21 -30 8 0 14 9 14 20 0 21 -24 28 -35 10z"/>
<path d="M1350 1305 c-26 -31 13 -82 44 -56 19 16 21 42 4 59 -16 16 -33 15
-48 -3z"/>
<path d="M1593 1304 c-4 -12 2 -23 20 -36 15 -11 27 -24 27 -29 0 -15 -22 -10
-36 9 -12 16 -13 15 -14 -5 0 -19 5 -23 34 -23 52 0 57 34 8 59 -12 7 -20 17
-16 22 4 6 14 3 26 -8 20 -17 20 -17 17 2 -5 27 -56 34 -66 9z"/>
<path d="M1780 1318 c-1 -2 -2 -39 -3 -83 -2 -77 -1 -80 21 -80 12 0 22 0 22
0 0 0 -4 15 -9 33 -9 31 -9 32 20 32 22 0 30 5 35 25 14 57 -20 97 -54 63 -9
-9 -12 -9 -12 0 0 10 -19 19 -20 10z m66 -64 c-9 -34 -36 -31 -36 4 0 36 20
59 33 36 5 -8 6 -26 3 -40z"/>
<path d="M1997 1314 c-12 -12 4 -25 18 -14 9 8 15 8 20 0 3 -5 -1 -12 -9 -15
-9 -3 -23 -7 -32 -10 -9 -3 -14 -14 -12 -27 3 -20 10 -23 46 -24 23 -1 45 2
48 7 3 5 1 9 -5 9 -5 0 -11 17 -13 38 -3 31 -7 37 -28 40 -14 2 -29 0 -33 -4z
m43 -58 c0 -20 -19 -31 -32 -18 -6 6 -7 15 -4 21 10 16 36 13 36 -3z"/>
<path d="M2180 1300 c-25 -47 17 -103 60 -80 11 6 20 16 20 22 0 7 -5 6 -15
-2 -25 -20 -47 -4 -43 32 3 32 28 53 28 23 0 -9 6 -15 13 -12 25 8 12 32 -20
35 -24 2 -34 -2 -43 -18z"/>
<path d="M2370 1299 c-16 -29 -4 -68 23 -78 23 -9 57 3 57 19 0 6 -9 5 -20 -2
-15 -9 -22 -10 -31 -1 -14 14 -3 33 20 33 26 0 44 23 29 38 -20 20 -66 14 -78
-9z"/>
<path d="M890 1294 c-11 -12 -10 -18 3 -32 16 -15 18 -15 34 0 13 14 14 20 3
32 -7 9 -16 16 -20 16 -4 0 -13 -7 -20 -16z"/>
<path d="M1106 1294 c-10 -26 19 -52 42 -38 9 6 17 20 17 30 0 26 -50 32 -59
8z"/>
<path d="M675 1290 c-4 -7 -3 -16 3 -22 14 -14 45 -2 40 15 -6 16 -34 21 -43
7z"/>
<path d="M1350 1165 c-26 -31 13 -82 44 -56 21 17 21 57 0 65 -23 9 -30 8 -44
-9z"/>
<path d="M890 1154 c-11 -12 -10 -18 3 -32 16 -15 18 -15 34 0 13 14 14 20 3
32 -7 9 -16 16 -20 16 -4 0 -13 -7 -20 -16z"/>
<path d="M1107 1156 c-11 -28 4 -47 32 -44 20 2 26 8 26 28 0 20 -6 26 -26 28
-17 2 -29 -3 -32 -12z"/>
<path d="M675 1150 c-4 -7 -3 -16 3 -22 14 -14 45 -2 40 15 -6 16 -34 21 -43
7z"/>
<path d="M2260 1052 c-21 -7 -30 -23 -30 -52 0 -32 10 -46 36 -54 22 -7 64 17
51 30 -4 4 -13 2 -19 -4 -28 -28 -57 5 -43 48 7 24 35 27 35 4 0 -8 5 -12 10
-9 25 15 -10 47 -40 37z"/>
<path d="M1605 1041 c-3 -5 -1 -12 4 -15 5 -4 11 -1 13 6 2 6 10 8 16 4 17
-10 5 -26 -18 -26 -11 0 -24 -9 -29 -19 -14 -26 4 -39 51 -38 36 1 36 1 31 36
-2 20 -6 42 -9 49 -4 14 -50 16 -59 3z m45 -48 c0 -5 -5 -15 -10 -23 -7 -11
-12 -12 -21 -3 -6 6 -8 16 -5 22 8 12 36 15 36 4z"/>
<path d="M1747 1043 c-13 -13 -7 -52 11 -62 9 -6 11 -11 5 -11 -7 0 -12 -3
-11 -7 0 -5 -2 -16 -6 -25 -5 -10 -6 -25 -2 -33 7 -20 70 -20 87 1 11 14 9 20
-15 40 -27 24 -27 25 -8 42 11 9 23 27 27 40 6 20 3 22 -38 22 -24 0 -47 -3
-50 -7z m53 -28 c0 -25 -23 -35 -35 -15 -10 16 2 40 20 40 9 0 15 -9 15 -25z
m10 -100 c0 -17 -36 -20 -45 -5 -4 6 -4 18 -1 26 4 12 10 13 26 4 11 -6 20
-17 20 -25z"/>
<path d="M1904 1025 c-9 -37 3 -72 28 -78 24 -7 58 8 58 25 0 9 -3 9 -12 0
-17 -17 -45 -15 -52 3 -4 11 3 17 24 22 35 7 42 15 34 37 -4 10 -18 16 -40 16
-28 0 -35 -5 -40 -25z"/>
<path d="M2060 1048 c-1 -2 -2 -25 -3 -53 -2 -45 0 -50 19 -50 19 0 21 4 17
32 -3 19 0 39 7 48 23 28 33 16 28 -32 -4 -44 -3 -48 18 -48 23 0 24 5 8 83
-5 25 -41 30 -63 10 -11 -10 -13 -10 -7 0 4 7 1 12 -8 12 -9 0 -16 -1 -16 -2z"/>
<path d="M2370 1045 c0 -2 9 -19 20 -37 25 -41 25 -53 0 -88 -11 -16 -16 -31
-11 -34 12 -8 23 7 56 74 15 30 34 63 43 73 14 16 13 17 -11 17 -19 0 -25 -4
-21 -14 3 -8 0 -25 -6 -37 -11 -20 -13 -21 -22 -5 -6 10 -8 26 -5 37 4 15 0
19 -19 19 -13 0 -24 -2 -24 -5z"/>
<path d="M1115 1016 c-12 -9 -15 -19 -10 -35 9 -30 59 -26 63 6 4 29 -28 47
-53 29z"/>
<path d="M1353 1023 c-21 -8 -16 -61 6 -68 40 -12 70 20 51 56 -10 18 -31 23
-57 12z"/>
<path d="M887 1013 c-13 -12 -7 -41 10 -47 9 -4 23 0 31 8 13 12 13 18 2 30
-13 17 -32 21 -43 9z"/>
<path d="M484 999 c-3 -6 -1 -16 5 -22 9 -9 14 -8 21 3 9 15 4 30 -10 30 -5 0
-12 -5 -16 -11z"/>
<path d="M675 1000 c-4 -7 -3 -16 3 -22 14 -14 45 -2 40 15 -6 16 -34 21 -43
7z"/>
<path d="M2072 660 c-44 -41 -25 -78 76 -157 36 -29 41 -57 13 -73 -36 -18
-59 -11 -81 26 -12 19 -25 33 -27 30 -3 -3 -2 -26 2 -52 4 -31 10 -43 17 -36
6 6 24 6 46 1 45 -10 91 12 94 44 3 49 -5 64 -63 117 -45 41 -59 59 -54 73 11
27 59 22 79 -8 23 -35 34 -31 27 11 -6 35 -7 36 -57 40 -40 3 -55 0 -72 -16z"/>
<path d="M492 657 c-71 -40 -80 -175 -15 -226 28 -23 100 -29 133 -11 24 13
43 47 34 61 -4 6 -11 1 -18 -13 -17 -34 -60 -52 -88 -37 -41 21 -58 51 -58
106 0 41 5 58 26 82 37 45 94 38 94 -11 0 -22 23 -23 41 -2 12 14 9 20 -16 40
-34 27 -95 32 -133 11z"/>
<path d="M733 650 c-39 -24 -58 -79 -49 -142 11 -72 44 -98 121 -98 55 0 96
19 115 55 17 31 17 113 1 144 -31 57 -128 78 -188 41z m128 -31 c73 -78 -2
-238 -85 -183 -37 24 -46 44 -46 107 0 45 4 59 26 81 36 35 69 33 105 -5z"/>
<path d="M973 652 c23 -25 25 -207 3 -231 -13 -14 -10 -16 30 -16 43 0 55 7
34 20 -5 3 -10 27 -10 52 0 43 1 45 25 39 69 -17 136 62 100 117 -18 28 -52
37 -138 37 -58 0 -59 -1 -44 -18z m137 -26 c10 -27 3 -67 -14 -78 -6 -4 -23
-8 -38 -8 -27 0 -28 2 -28 55 l0 55 35 0 c28 0 37 -5 45 -24z"/>
<path d="M1198 658 c5 -7 12 -55 14 -106 3 -88 5 -95 31 -118 36 -31 104 -33
138 -5 22 17 24 28 27 118 2 54 9 104 14 111 8 9 2 12 -27 12 -32 0 -36 -2
-25 -15 8 -10 11 -45 8 -111 -2 -81 -6 -98 -22 -110 -26 -19 -46 -17 -75 5
-22 17 -25 28 -29 105 -4 73 -2 90 13 106 18 20 17 20 -30 20 -37 0 -45 -3
-37 -12z"/>
<path d="M1473 652 c23 -25 25 -207 3 -231 -13 -14 -8 -16 54 -15 84 1 125 17
140 53 14 34 -2 76 -34 86 -17 6 -18 8 -5 12 9 2 22 15 29 28 11 20 10 28 -3
48 -18 28 -53 37 -140 37 -58 0 -59 -1 -44 -18z m137 -26 c9 -25 3 -66 -10
-66 -4 0 -22 -3 -39 -6 l-31 -6 0 51 0 51 35 0 c28 0 37 -5 45 -24z m4 -116
c26 -25 15 -64 -24 -80 -48 -20 -60 -9 -60 55 l0 57 33 -7 c17 -4 40 -15 51
-25z"/>
<path d="M1718 658 c15 -15 17 -224 2 -233 -24 -15 -5 -20 68 -19 42 0 82 -3
89 -8 8 -7 14 4 18 37 4 25 5 48 2 51 -2 3 -15 -11 -27 -31 -20 -32 -26 -36
-59 -33 l-36 3 -3 104 c-2 86 0 107 14 122 16 18 15 19 -31 19 -38 0 -46 -3
-37 -12z"/>
<path d="M1943 652 c24 -26 25 -220 2 -228 -28 -11 -15 -19 30 -19 43 0 56 7
35 20 -15 9 -13 218 2 233 9 9 1 12 -37 12 -46 0 -47 -1 -32 -18z"/>
<path d="M2253 652 c23 -25 25 -207 3 -231 -13 -14 -10 -16 30 -16 46 0 51 4
33 22 -5 5 -9 32 -7 59 l3 49 65 0 65 0 3 -49 c2 -27 -2 -54 -7 -59 -18 -18
-13 -22 29 -22 39 0 50 7 30 20 -6 3 -10 52 -10 112 0 89 3 108 18 119 15 12
10 13 -38 13 -49 0 -53 -1 -37 -13 14 -11 17 -25 15 -58 l-3 -43 -65 0 -65 0
-3 43 c-2 24 2 50 9 58 10 12 4 14 -36 14 -46 0 -47 -1 -32 -18z"/>
</g>
</svg>
