<?xml version="1.0" standalone="no"?>
<!DOCTYPE svg PUBLIC "-//W3C//DTD SVG 20010904//EN"
 "http://www.w3.org/TR/2001/REC-SVG-20010904/DTD/svg10.dtd">
<svg version="1.0" xmlns="http://www.w3.org/2000/svg"
 width="700.000000pt" height="700.000000pt" viewBox="0 0 700.000000 700.000000"
 preserveAspectRatio="xMidYMid meet">

<g transform="translate(0.000000,700.000000) scale(0.100000,-0.100000)"
fill="#000000" stroke="none">
<path d="M5834 5910 c-191 -45 -204 -309 -19 -370 180 -60 328 163 203 306
-50 57 -118 80 -184 64z"/>
<path d="M4462 5860 c-46 -28 -72 -76 -72 -133 0 -173 219 -228 298 -74 56
109 -19 227 -145 227 -30 0 -60 -7 -81 -20z"/>
<path d="M3223 5830 c-94 -57 -74 -195 34 -231 42 -14 90 1 127 40 99 104 -37
267 -161 191z"/>
<path d="M2029 5791 c-38 -39 -39 -87 -3 -130 56 -66 164 -25 164 63 0 52 -44
96 -95 96 -27 0 -44 -8 -66 -29z"/>
<path d="M955 5765 c-30 -29 -31 -45 -4 -79 28 -35 70 -35 98 1 24 30 20 58
-11 86 -28 24 -55 21 -83 -8z"/>
<path d="M5779 5137 c-62 -33 -102 -100 -102 -170 0 -117 84 -200 200 -199
127 1 214 114 189 247 -8 43 -68 113 -113 132 -50 21 -123 16 -174 -10z"/>
<path d="M4465 5108 c-57 -34 -87 -89 -82 -156 6 -91 72 -152 162 -152 164 0
227 204 93 303 -42 31 -123 33 -173 5z"/>
<path d="M3235 5086 c-126 -57 -95 -241 42 -253 84 -7 147 50 145 133 -1 73
-46 122 -119 130 -21 2 -51 -2 -68 -10z"/>
<path d="M2048 5055 c-65 -36 -73 -122 -17 -169 45 -39 92 -35 136 9 32 32 35
40 30 77 -10 75 -87 118 -149 83z"/>
<path d="M980 5033 c-55 -20 -68 -87 -24 -122 15 -12 34 -21 44 -21 31 0 70
39 70 70 0 47 -50 87 -90 73z"/>
<path d="M5795 4381 c-53 -24 -112 -91 -121 -136 -39 -211 202 -342 348 -188
78 82 76 198 -6 279 -63 63 -145 80 -221 45z"/>
<path d="M4493 4359 c-45 -13 -100 -71 -113 -119 -34 -125 76 -240 206 -216
45 9 109 67 125 113 27 83 -14 177 -95 214 -45 20 -74 22 -123 8z"/>
<path d="M3233 4320 c-131 -59 -99 -249 44 -266 77 -10 153 60 153 140 0 102
-104 169 -197 126z"/>
<path d="M2019 4271 c-57 -57 -32 -155 46 -181 30 -10 41 -9 73 7 109 53 76
203 -45 203 -36 0 -50 -6 -74 -29z"/>
<path d="M945 4245 c-49 -49 -16 -125 55 -125 44 0 80 35 80 77 0 34 -42 73
-80 73 -19 0 -40 -9 -55 -25z"/>
<path d="M5785 3602 c-53 -26 -91 -67 -110 -121 -29 -82 -12 -155 51 -217 49
-49 99 -68 165 -62 196 19 262 269 101 382 -55 39 -146 47 -207 18z"/>
<path d="M4475 3576 c-43 -18 -93 -79 -101 -121 -20 -107 41 -202 142 -221
115 -22 232 95 209 207 -23 112 -149 179 -250 135z"/>
<path d="M3217 3538 c-128 -76 -76 -273 73 -273 82 0 145 63 145 145 0 112
-123 184 -218 128z"/>
<path d="M2054 3520 c-38 -15 -74 -68 -74 -110 0 -77 84 -135 152 -107 97 41
105 168 14 211 -37 18 -60 19 -92 6z"/>
<path d="M964 3486 c-34 -15 -58 -63 -47 -94 33 -93 163 -78 163 19 0 61 -60
99 -116 75z"/>
<path d="M5820 2791 c-106 -34 -160 -106 -160 -213 1 -95 43 -159 134 -199
136 -60 296 50 296 202 0 68 -43 146 -101 182 -48 29 -125 42 -169 28z"/>
<path d="M4525 2765 c-5 -2 -22 -6 -37 -9 -63 -14 -128 -103 -128 -176 0 -79
63 -159 141 -180 110 -30 229 60 229 172 0 27 -6 63 -14 81 -28 68 -135 131
-191 112z"/>
<path d="M3225 2720 c-33 -13 -72 -62 -83 -102 -14 -52 0 -105 41 -145 62 -63
156 -61 218 3 28 29 33 42 36 91 5 68 -16 111 -69 143 -34 21 -106 26 -143 10z"/>
<path d="M2021 2675 c-89 -75 -40 -215 75 -215 37 0 51 6 82 34 34 31 37 39
37 86 0 47 -3 55 -37 86 -49 44 -110 48 -157 9z"/>
<path d="M939 2641 c-20 -20 -29 -39 -29 -61 0 -43 47 -90 90 -90 43 0 90 47
90 90 0 43 -47 90 -90 90 -22 0 -41 -9 -61 -29z"/>
<path d="M5105 1735 c-40 -29 -53 -45 -67 -87 -17 -49 -17 -54 -1 -105 15 -48
27 -62 107 -131 50 -42 119 -103 154 -136 54 -52 62 -64 62 -96 0 -62 -56
-100 -147 -100 l-58 1 -49 79 c-34 56 -55 80 -69 80 -16 0 -18 -5 -14 -32 4
-18 11 -70 18 -115 6 -46 16 -83 21 -83 5 0 22 7 37 15 25 13 39 12 116 -2
l87 -17 66 34 67 35 18 65 c17 61 17 68 1 122 -16 54 -24 63 -128 152 -61 52
-131 115 -154 139 l-44 45 17 33 c31 60 44 69 99 69 l52 0 52 -70 c32 -42 60
-70 71 -70 17 0 17 4 4 83 -23 139 -18 129 -58 110 -35 -17 -57 -15 -190 12
-12 3 -41 -10 -70 -30z"/>
<path d="M895 1703 c-92 -46 -131 -102 -156 -223 -17 -79 -17 -91 -2 -170 23
-127 64 -186 160 -234 66 -32 81 -36 154 -36 77 0 82 2 138 39 70 48 130 133
111 156 -19 23 -28 18 -49 -22 -27 -54 -78 -98 -134 -116 l-49 -16 -69 34
c-55 28 -76 46 -104 87 l-35 53 0 134 0 134 36 57 c46 69 118 120 172 120 30
0 45 -7 70 -33 28 -28 32 -40 32 -85 l0 -52 38 0 c30 0 45 7 71 34 l32 33 -18
38 c-14 29 -32 44 -85 71 -62 31 -75 34 -155 33 -80 0 -94 -3 -158 -36z"/>
<path d="M1555 1708 c-83 -42 -129 -111 -152 -230 -15 -79 -15 -91 0 -169 24
-120 65 -178 157 -224 66 -33 74 -35 175 -35 100 0 109 2 173 34 91 46 131
105 156 229 16 82 16 93 1 170 -24 119 -64 176 -155 222 -68 34 -73 35 -182
34 -106 0 -117 -2 -173 -31z m264 -37 c35 -24 71 -60 90 -89 31 -49 31 -49 31
-187 0 -138 0 -138 -32 -187 -41 -65 -119 -118 -173 -118 -54 0 -132 53 -173
118 l-32 49 0 144 0 144 35 47 c42 57 129 118 168 118 16 0 53 -17 86 -39z"/>
<path d="M2183 1703 l37 -39 0 -269 0 -269 -37 -38 -37 -38 124 0 124 0 -37
38 -37 38 0 118 c0 99 2 117 15 113 8 -4 40 -11 72 -18 56 -11 61 -10 142 22
l83 34 35 86 34 87 -35 70 c-34 67 -37 71 -83 82 -26 7 -136 14 -243 17 l-195
5 38 -39z m305 -12 c31 -16 41 -28 54 -71 16 -49 16 -58 1 -121 -17 -68 -17
-69 -62 -84 -24 -8 -71 -15 -103 -15 l-58 0 0 132 c0 121 2 134 22 155 27 29
93 31 146 4z"/>
<path d="M2778 1707 l32 -33 0 -212 c0 -187 2 -217 20 -265 38 -100 119 -147
257 -147 84 0 129 18 179 72 55 58 64 106 64 337 l0 205 37 38 37 38 -104 0
-104 0 32 -33 32 -33 0 -210 c0 -168 -3 -220 -16 -260 -21 -61 -28 -71 -75
-95 -58 -29 -110 -25 -168 14 -46 29 -51 37 -65 94 -12 46 -16 114 -16 260 l0
197 32 33 32 33 -119 0 -119 0 32 -33z"/>
<path d="M4153 1702 l37 -38 0 -274 0 -274 -32 -33 -32 -33 202 0 c168 0 207
-3 237 -17 19 -9 37 -15 39 -12 7 7 38 231 32 236 -13 14 -38 -12 -86 -91
l-51 -86 -83 0 c-123 0 -116 -19 -116 315 l0 279 32 33 32 33 -124 0 -124 0
37 -38z"/>
<path d="M4753 1702 l37 -38 0 -269 0 -269 -37 -38 -37 -38 124 0 124 0 -37
38 -37 38 0 269 0 269 37 38 37 38 -124 0 -124 0 37 -38z"/>
<path d="M5578 1707 l32 -33 0 -279 0 -279 -32 -33 -32 -33 119 0 119 0 -32
33 -32 33 0 125 c0 84 4 129 12 137 8 8 61 12 173 12 204 0 195 7 195 -150 l0
-114 -37 -38 -37 -38 124 0 124 0 -37 38 -37 38 0 269 0 269 37 38 37 38 -124
0 -124 0 37 -38 37 -38 0 -95 c0 -87 -2 -97 -23 -117 -22 -21 -33 -22 -174
-22 -189 0 -183 -4 -183 140 0 103 0 104 32 137 l32 33 -119 0 -119 0 32 -33z"/>
<path d="M3498 1698 l32 -34 0 -274 0 -274 -37 -38 -37 -38 192 0 192 0 70 35
c66 33 72 39 105 105 l35 70 -35 69 c-30 60 -39 71 -72 81 -53 17 -58 25 -26
39 26 11 93 98 93 121 0 5 -14 39 -32 74 -30 61 -35 66 -77 77 -26 6 -134 13
-241 16 l-195 5 33 -34z m307 -15 c29 -14 38 -26 52 -69 14 -45 14 -59 3 -98
-7 -25 -18 -50 -24 -54 -15 -12 -138 -42 -171 -42 l-25 0 0 122 c0 145 6 158
81 158 27 0 64 -8 84 -17z m-37 -312 c41 -11 75 -21 76 -23 2 -2 17 -25 35
-51 l32 -48 -16 -50 c-13 -39 -27 -58 -64 -84 -40 -30 -54 -35 -106 -35 -35 0
-66 5 -73 12 -8 8 -12 57 -12 155 l0 143 28 0 c15 0 60 -9 100 -19z"/>
</g>
</svg>
